#!OML:ASF X:\für Bonn\!DataBase\2005_08_12_Daniel\c3d\Daniel.ASF
:FULLY-SPECIFIED
:DEGREES
33
root 3.46168 17.1203 -2.17943 -173.974 -75.0678 137.153
lowerback 38.1313 -1.3702 6.04935
upperback 11.1492 -2.33887 -9.33875
thorax -7.2746 -1.69834 -12.3468
lowerneck 5.08193 5.6866 -9.60298
upperneck 19.7546 7.24796 -4.50874
head 5.039 2.1539 0.310415
rclavicle 1.98785e-016 5.40694e-014
rhumerus -40.5665 29.3056 -97.1974
rradius 72.1092
rwrist 14.1041
rhand -23.2297 28.2268
rfingers 7.12502
rthumb 3.22126 -1.72858
lclavicle 1.98785e-016 5.40694e-014
lhumerus -36.1739 -13.5477 80.8673
lradius 124.826
lwrist 12.3136
lhand -19.319 -19.4933
lfingers 7.12502
lthumb 6.99722 10.371
rfemur 25.8871 8.94232 14.422
rtibia 29.4592
rfoot -20.6581 -5.02429
rtoes -12.9338
lfemur -76.086 33.7357 -10.1449
ltibia 138.996
lfoot 58.8569 -23.9987
ltoes -15.3189
34
root 3.44507 17.1242 -2.1735 -175.896 -74.3789 137.685
lowerback 39.2988 -1.11853 6.30636
upperback 11.6307 -2.02931 -9.4616
thorax -7.05644 -1.5633 -12.7412
lowerneck 5.80115 5.85553 -9.61301
upperneck 20.6928 7.35067 -4.58211
head 5.22303 2.11549 0.276886
rclavicle -7.60351e-014 3.57812e-014
rhumerus -38.9601 29.9921 -96.548
rradius 70.8138
rwrist 13.3407
rhand -22.0326 28.0717
rfingers 7.12502
rthumb 4.37733 -1.86305
lclavicle -7.60351e-014 3.57812e-014
lhumerus -35.5263 -13.7459 80.1614
lradius 125.532
lwrist 12.9966
lhand -18.7148 -19.7309
lfingers 7.12502
lthumb 7.58042 10.1133
rfemur 27.7253 8.86604 14.0434
rtibia 28.3565
rfoot -20.0813 -4.63357
rtoes -12.7631
lfemur -79.1212 34.5593 -10.208
ltibia 138.822
lfoot 61.0351 -23.5017
ltoes -14.4608
35
root 3.42919 17.1196 -2.17116 -177.895 -73.7525 138.34
lowerback 40.5729 -0.886938 6.54567
upperback 11.9939 -1.73718 -9.51455
thorax -6.83818 -1.43387 -13.0642
lowerneck 6.77475 6.06937 -9.92063
upperneck 21.1054 7.39566 -4.24775
head 5.17734 2.09886 0.403603
rclavicle -4.77083e-015 5.32743e-014
rhumerus -37.3424 30.3878 -95.868
rradius 69.3296
rwrist 12.5287
rhand -20.8968 27.9281
rfingers 7.12502
rthumb 5.47397 -1.98119
lclavicle -4.77083e-015 5.32743e-014
lhumerus -34.9409 -13.8494 79.5277
lradius 126.289
lwrist 13.6444
lhand -18.0459 -19.9123
lfingers 7.12502
lthumb 8.22603 9.90752
rfemur 29.4226 8.77191 13.7639
rtibia 27.45
rfoot -19.6138 -4.32159
rtoes -12.3476
lfemur -81.9678 34.9315 -10.2841
ltibia 138.143
lfoot 62.0794 -22.8435
ltoes -16.1117
36
root 3.41556 17.1074 -2.17275 -179.924 -73.1971 139.05
lowerback 41.8132 -0.664229 6.77797
upperback 12.4228 -1.45791 -9.52911
thorax -6.66082 -1.31516 -13.313
lowerneck 7.86521 6.27374 -10.2292
upperneck 21.2842 7.39777 -3.92788
head 5.0423 2.07883 0.519173
rclavicle 7.16619e-014 -4.53229e-014
rhumerus -35.7947 30.4678 -95.1652
rradius 67.7687
rwrist 11.8082
rhand -19.9465 27.6745
rfingers 7.12502
rthumb 6.39144 -2.20902
lclavicle 7.16619e-014 -4.53229e-014
lhumerus -34.4325 -13.9114 78.9586
lradius 127.104
lwrist 14.3145
lhand -17.4 -20.0338
lfingers 7.12502
lthumb 8.84934 9.76061
rfemur 30.988 8.44425 13.3616
rtibia 26.6906
rfoot -19.1822 -3.84058
rtoes -11.8435
lfemur -84.5154 34.6462 -10.3327
ltibia 136.919
lfoot 61.818 -22.1278
ltoes -17.2168
37
root 3.40683 17.0951 -2.18072 -181.209 -72.7564 139.143
lowerback 43.0085 -0.413498 6.80074
upperback 12.8002 -1.22682 -9.54054
thorax -6.5215 -1.22498 -13.4248
lowerneck 8.85601 6.47775 -10.5195
upperneck 21.5122 7.40268 -3.53681
head 4.93802 2.05981 0.657711
rclavicle 8.54774e-015 5.00937e-014
rhumerus -34.3462 30.2196 -94.5067
rradius 66.1791
rwrist 11.1299
rhand -19.103 27.2678
rfingers 7.12502
rthumb 7.2057 -2.58948
lclavicle 8.54774e-015 5.00937e-014
lhumerus -34.0329 -13.9394 78.4956
lradius 127.883
lwrist 14.7972
lhand -16.8711 -20.2932
lfingers 7.12502
lthumb 9.35969 9.47898
rfemur 32.2889 7.87044 12.5942
rtibia 26.0979
rfoot -18.8179 -3.15451
rtoes -11.173
lfemur -86.7206 33.4141 -10.5884
ltibia 135.045
lfoot 60.5944 -21.2397
ltoes -15.6717
38
root 3.40302 17.0856 -2.19619 -181.737 -72.4314 138.56
lowerback 44.2238 -0.12461 6.57179
upperback 13.1111 -1.05818 -9.56233
thorax -6.46426 -1.1754 -13.3856
lowerneck 9.46682 6.68555 -10.6939
upperneck 22.1343 7.47973 -3.10276
head 5.01806 2.05221 0.808453
rclavicle 1.2921e-014 -3.73715e-014
rhumerus -33.089 29.6698 -93.9445
rradius 64.6144
rwrist 10.4521
rhand -18.3581 26.7286
rfingers 7.12502
rthumb 7.92472 -3.10282
lclavicle 1.2921e-014 -3.73715e-014
lhumerus -33.8515 -13.8597 78.2019
lradius 128.629
lwrist 14.9689
lhand -16.4925 -20.7924
lfingers 7.12502
lthumb 9.72501 8.96303
rfemur 33.4062 7.23492 11.6207
rtibia 25.7046
rfoot -18.5776 -2.57275
rtoes -10.5601
lfemur -88.2839 31.2685 -10.903
ltibia 132.352
lfoot 58.3493 -19.7581
ltoes -15.9158
39
root 3.40193 17.0735 -2.21689 -181.794 -72.2326 137.702
lowerback 45.311 0.178347 6.21202
upperback 13.3591 -0.928366 -9.58089
thorax -6.44015 -1.14762 -13.2582
lowerneck 9.77447 6.88114 -10.7265
upperneck 23.0472 7.59648 -2.64045
head 5.23889 2.05292 0.959813
rclavicle 8.94531e-015 1.98785e-014
rhumerus -32.0668 28.6903 -93.5182
rradius 63.1493
rwrist 9.77591
rhand -17.6372 26.1716
rfingers 7.12502
rthumb 8.62045 -3.63237
lclavicle 8.94531e-015 1.98785e-014
lhumerus -33.9121 -13.6677 78.1633
lradius 129.445
lwrist 14.9978
lhand -16.0856 -21.3682
lfingers 7.12502
lthumb 10.1175 8.36857
rfemur 34.2808 6.74266 10.82
rtibia 25.5342
rfoot -18.5284 -2.36832
rtoes -9.98338
lfemur -89.3533 28.7317 -11.1433
ltibia 128.874
lfoot 55.567 -17.8937
ltoes -18.5788
40
root 3.40346 17.0525 -2.24116 -181.494 -72.1358 136.657
lowerback 46.2629 0.496776 5.7557
upperback 13.6147 -0.830626 -9.59006
thorax -6.369 -1.13588 -13.0561
lowerneck 9.81918 7.0462 -10.6842
upperneck 24.0078 7.72641 -2.20373
head 5.51877 2.06414 1.10194
rclavicle 2.90226e-014 -6.83819e-014
rhumerus -31.1525 27.375 -93.1407
rradius 61.8258
rwrist 9.06611
rhand -16.9849 25.6033
rfingers 7.12502
rthumb 9.24989 -4.17378
lclavicle 2.90226e-014 -6.83819e-014
lhumerus -33.9759 -13.3888 78.2406
lradius 130.214
lwrist 15.0325
lhand -15.7197 -22.066
lfingers 7.12502
lthumb 10.4706 7.65326
rfemur 34.9315 6.38876 10.2182
rtibia 25.5762
rfoot -18.6688 -2.53372
rtoes -9.6125
lfemur -89.9698 26.1021 -11.2284
ltibia 124.741
lfoot 52.6085 -15.92
ltoes -21.8613
41
root 3.4048 17.0248 -2.26734 -181.165 -72.0991 135.686
lowerback 48.0875 0.800963 5.16078
upperback 12.9342 -0.776513 -9.68951
thorax -6.26972 -1.09901 -12.6589
lowerneck 9.6141 7.18663 -10.5731
upperneck 25.0415 7.86708 -1.75039
head 5.86263 2.08621 1.24971
rclavicle 1.11319e-014 -3.33958e-014
rhumerus -30.3499 25.7223 -92.8339
rradius 60.6831
rwrist 8.42654
rhand -16.3657 25.0983
rfingers 7.12502
rthumb 9.84731 -4.65144
lclavicle 1.11319e-014 -3.33958e-014
lhumerus -33.9617 -13.0481 78.3254
lradius 130.881
lwrist 15.1268
lhand -15.4481 -22.8585
lfingers 7.12502
lthumb 10.7325 6.84734
rfemur 35.4464 6.08739 9.76332
rtibia 25.7684
rfoot -18.9198 -2.83078
rtoes -9.3605
lfemur -90.004 23.5362 -11.0145
ltibia 119.954
lfoot 49.6293 -13.6242
ltoes -21.6162
42
root 3.40672 16.9959 -2.29603 -180.783 -72.1523 134.724
lowerback 49.0281 1.09567 4.70056
upperback 13.1394 -0.735801 -9.671
thorax -6.17762 -1.11476 -12.4212
lowerneck 9.2638 7.29379 -10.373
upperneck 26.0552 8.00123 -1.37316
head 6.2314 2.11443 1.36593
rclavicle -2.90226e-014 7.07673e-014
rhumerus -29.7024 23.8749 -92.6091
rradius 59.7677
rwrist 7.86418
rhand -15.8553 24.5792
rfingers 7.12502
rthumb 10.3397 -5.14663
lclavicle -2.90226e-014 7.07673e-014
lhumerus -33.871 -12.6035 78.4553
lradius 131.497
lwrist 15.3284
lhand -15.1064 -23.4529
lfingers 7.12502
lthumb 11.0621 6.23555
rfemur 35.9083 5.81984 9.45973
rtibia 26.0422
rfoot -19.2567 -3.30251
rtoes -9.25778
lfemur -89.3871 21.0703 -10.5558
ltibia 114.476
lfoot 46.57 -10.8525
ltoes -17.6043
43
root 3.41232 16.9733 -2.3276 -180.462 -72.282 133.91
lowerback 49.9459 1.35255 4.31642
upperback 13.3238 -0.708807 -9.65191
thorax -6.0968 -1.13483 -12.2194
lowerneck 8.78259 7.37763 -10.18
upperneck 27.0635 8.09803 -0.857945
head 6.61561 2.14014 1.53446
rclavicle 2.04748e-014 2.3059e-014
rhumerus -29.2304 21.8727 -92.5011
rradius 59.0547
rwrist 7.42443
rhand -15.3669 23.9988
rfingers 7.12502
rthumb 10.8109 -5.70299
lclavicle 2.04748e-014 2.3059e-014
lhumerus -33.7567 -12.1306 78.645
lradius 132.086
lwrist 15.3781
lhand -14.9072 -23.734
lfingers 7.12502
lthumb 11.2542 5.94413
rfemur 36.3237 5.56818 9.32171
rtibia 26.2909
rfoot -19.5963 -3.84782
rtoes -9.10828
lfemur -88.3433 18.8622 -9.91937
ltibia 108.447
lfoot 42.8762 -7.94804
ltoes -16.9306
44
root 3.42207 16.9562 -2.36223 -180.217 -72.4583 133.317
lowerback 50.7342 1.58584 3.99324
upperback 13.4982 -0.675041 -9.61863
thorax -5.9973 -1.14774 -12.0373
lowerneck 8.27042 7.43989 -10.0003
upperneck 27.9621 8.15294 -0.283429
head 6.96906 2.16334 1.72635
rclavicle -1.59028e-015 -7.79236e-014
rhumerus -28.8859 19.7845 -92.4697
rradius 58.4789
rwrist 7.10333
rhand -15.1514 23.2632
rfingers 7.12502
rthumb 11.0188 -6.42764
lclavicle -1.59028e-015 -7.79236e-014
lhumerus -33.6565 -11.6296 78.8994
lradius 132.612
lwrist 15.2177
lhand -14.9693 -23.8027
lfingers 7.12502
lthumb 11.1943 5.87867
rfemur 36.6746 5.32424 9.34999
rtibia 26.387
rfoot -19.8392 -4.48276
rtoes -9.09672
lfemur -87.0219 16.9845 -9.18051
ltibia 102.001
lfoot 38.8033 -5.18515
ltoes -18.9228
